<?xml version="1.0" encoding="utf-8"?>
<!-- Generator: Adobe Illustrator 16.0.0, SVG Export Plug-In . SVG Version: 6.00 Build 0)  -->
<!DOCTYPE svg PUBLIC "-//W3C//DTD SVG 1.1//EN" "http://www.w3.org/Graphics/SVG/1.1/DTD/svg11.dtd">
<svg version="1.1" id="Layer_1" xmlns="http://www.w3.org/2000/svg" xmlns:xlink="http://www.w3.org/1999/xlink" x="0px" y="0px"
	 width="159.5px" height="47.5px" viewBox="0 0 159.5 47.5" enable-background="new 0 0 159.5 47.5" xml:space="preserve">
<g>
	<path fill="#FFFFFF" d="M9.104,24.208c0-4.334,1.164-7.728,3.491-10.18c2.328-2.452,5.333-3.678,9.014-3.678
		c2.411,0,4.584,0.576,6.52,1.728c1.936,1.152,3.411,2.758,4.426,4.818c1.016,2.061,1.523,4.396,1.523,7.009
		c0,2.648-0.535,5.017-1.604,7.107c-1.069,2.091-2.583,3.673-4.542,4.748c-1.959,1.074-4.073,1.611-6.342,1.611
		c-2.458,0-4.655-0.593-6.591-1.781c-1.936-1.187-3.402-2.809-4.399-4.862C9.603,28.674,9.104,26.5,9.104,24.208z M12.666,24.262
		c0,3.147,0.846,5.627,2.539,7.438s3.815,2.716,6.368,2.716c2.601,0,4.741-0.914,6.421-2.742c1.681-1.83,2.521-4.424,2.521-7.785
		c0-2.125-0.36-3.981-1.078-5.566c-0.718-1.585-1.769-2.814-3.153-3.687c-1.383-0.873-2.936-1.31-4.658-1.31
		c-2.446,0-4.551,0.84-6.314,2.521C13.548,17.526,12.666,20.332,12.666,24.262z"/>
	<path fill="#FFFFFF" d="M38.121,36.928V18.01h2.886v2.689c1.389-2.078,3.396-3.117,6.021-3.117c1.14,0,2.188,0.205,3.144,0.615
		s1.671,0.947,2.146,1.612c0.475,0.665,0.808,1.455,0.998,2.369c0.119,0.594,0.178,1.633,0.178,3.117v11.633h-3.207V25.42
		c0-1.307-0.125-2.283-0.374-2.93s-0.691-1.164-1.327-1.55c-0.636-0.386-1.381-0.579-2.236-0.579c-1.366,0-2.544,0.434-3.536,1.3
		c-0.991,0.867-1.487,2.512-1.487,4.935v10.332H38.121z"/>
	<path fill="#EFEFEF" d="M82.208,36.928h-5.735l-2.28-5.933H63.754l-2.155,5.933h-5.593l10.171-26.115h5.575L82.208,36.928z
		 M72.5,26.596l-3.598-9.69l-3.527,9.69H72.5z"/>
	<path fill="#EFEFEF" d="M84.827,18.01h4.666v2.779c0.606-0.95,1.426-1.722,2.459-2.316s2.18-0.891,3.438-0.891
		c2.197,0,4.062,0.861,5.594,2.583s2.298,4.121,2.298,7.196c0,3.159-0.771,5.614-2.315,7.366c-1.544,1.751-3.414,2.627-5.611,2.627
		c-1.045,0-1.992-0.208-2.841-0.624c-0.85-0.415-1.743-1.127-2.682-2.138v9.531h-5.005V18.01z M89.779,27.148
		c0,2.125,0.422,3.696,1.265,4.711c0.844,1.016,1.871,1.522,3.082,1.522c1.164,0,2.131-0.466,2.903-1.397
		c0.771-0.933,1.158-2.461,1.158-4.587c0-1.983-0.398-3.456-1.193-4.418c-0.797-0.962-1.782-1.443-2.957-1.443
		c-1.224,0-2.239,0.472-3.046,1.416C90.183,23.897,89.779,25.295,89.779,27.148z"/>
	<path fill="#EFEFEF" d="M107.111,18.01h4.667v2.779c0.605-0.95,1.425-1.722,2.458-2.316s2.179-0.891,3.438-0.891
		c2.196,0,4.062,0.861,5.593,2.583c1.532,1.722,2.298,4.121,2.298,7.196c0,3.159-0.772,5.614-2.315,7.366
		c-1.544,1.751-3.415,2.627-5.611,2.627c-1.045,0-1.992-0.208-2.841-0.624c-0.849-0.415-1.743-1.127-2.681-2.138v9.531h-5.006V18.01
		z M112.063,27.148c0,2.125,0.421,3.696,1.265,4.711c0.843,1.016,1.87,1.522,3.081,1.522c1.164,0,2.132-0.466,2.903-1.397
		c0.772-0.933,1.158-2.461,1.158-4.587c0-1.983-0.398-3.456-1.193-4.418s-1.781-1.443-2.957-1.443c-1.223,0-2.238,0.472-3.046,1.416
		C112.466,23.897,112.063,25.295,112.063,27.148z"/>
	<path fill="#EFEFEF" d="M127.774,31.529l5.023-0.766c0.214,0.974,0.647,1.713,1.301,2.218c0.652,0.505,1.567,0.757,2.742,0.757
		c1.295,0,2.269-0.237,2.922-0.713c0.438-0.332,0.659-0.777,0.659-1.335c0-0.38-0.119-0.695-0.356-0.944
		c-0.249-0.237-0.808-0.457-1.675-0.659c-4.037-0.891-6.597-1.704-7.677-2.44c-1.496-1.021-2.244-2.44-2.244-4.257
		c0-1.639,0.646-3.016,1.941-4.132c1.294-1.117,3.301-1.675,6.021-1.675c2.588,0,4.513,0.422,5.771,1.265
		c1.26,0.843,2.127,2.09,2.602,3.741l-4.721,0.873c-0.202-0.736-0.585-1.3-1.148-1.692c-0.564-0.392-1.369-0.588-2.414-0.588
		c-1.317,0-2.263,0.184-2.832,0.552c-0.38,0.261-0.57,0.6-0.57,1.016c0,0.356,0.166,0.659,0.498,0.908
		c0.452,0.333,2.01,0.802,4.677,1.407c2.666,0.606,4.527,1.348,5.585,2.227c1.045,0.891,1.566,2.132,1.566,3.723
		c0,1.734-0.724,3.224-2.173,4.472c-1.448,1.246-3.593,1.87-6.431,1.87c-2.576,0-4.616-0.522-6.118-1.567
		C129.219,34.742,128.237,33.322,127.774,31.529z"/>
</g>
</svg>
