<?xml version="1.0" encoding="utf-8"?>
<!-- Generator: Adobe Illustrator 16.0.0, SVG Export Plug-In . SVG Version: 6.00 Build 0)  -->
<!DOCTYPE svg PUBLIC "-//W3C//DTD SVG 1.1//EN" "http://www.w3.org/Graphics/SVG/1.1/DTD/svg11.dtd">
<svg version="1.1" id="Layer_1" xmlns="http://www.w3.org/2000/svg" xmlns:xlink="http://www.w3.org/1999/xlink" x="0px" y="0px"
	 width="350px" height="240px" viewBox="0 0 350 240" enable-background="new 0 0 350 240" xml:space="preserve">
<path fill="#4F5962" d="M312.699,144.839h-26.443c-2.312,0-4.188,1.875-4.188,4.187v46.461c0,2.312,1.875,4.188,4.188,4.188h26.443
	c2.312,0,4.186-1.874,4.186-4.188v-46.461C316.885,146.714,315.011,144.839,312.699,144.839z M299.477,197.824
	c-1.184,0-2.143-0.959-2.143-2.143c0-1.188,0.959-2.146,2.143-2.146c1.188,0,2.146,0.959,2.146,2.146
	C301.62,196.865,300.661,197.824,299.477,197.824z M312.533,191.404h-26.111v-40.473h26.111V191.404z"/>
<path fill="#4F5962" d="M198.203,100.959l57.771-1.772V37.304c-0.002-3.449-2.799-6.243-6.246-6.243H52.436
	c-3.447,0-6.243,2.795-6.243,6.243v130.542c0,3.446,2.796,6.242,6.243,6.242h78.097l-5.837,21.305l-5.607,1.319V201h28.122h1.562
	h28.122v-4.288l-5.604-1.319l-5.837-21.305h29.051 M195.249,98.3l-0.738,42.197H53.863c-0.198,0-0.385,0.034-0.578,0.049V37.426
	h195.596v59.693L195.249,98.3z"/>
<path fill="#4F5962" d="M269.957,94.02h-75.445c-2.732,0-4.947,2.215-4.947,4.946v96.472c0,2.731,2.215,4.946,4.947,4.946h75.445
	c2.732,0,4.947-2.215,4.947-4.946V98.966C274.904,96.235,272.689,94.02,269.957,94.02z M265.861,188.578h-67.256v-86.206h67.256
	V188.578z"/>
<circle fill="#EFF0F2" cx="232.648" cy="194.79" r="2.654"/>
</svg>
