<?xml version="1.0" encoding="utf-8"?>
<!-- Generator: Adobe Illustrator 16.0.0, SVG Export Plug-In . SVG Version: 6.00 Build 0)  -->
<!DOCTYPE svg PUBLIC "-//W3C//DTD SVG 1.1//EN" "http://www.w3.org/Graphics/SVG/1.1/DTD/svg11.dtd">
<svg version="1.1" id="Layer_1" xmlns="http://www.w3.org/2000/svg" xmlns:xlink="http://www.w3.org/1999/xlink" x="0px" y="0px"
	 width="350px" height="240px" viewBox="0 0 350 240" enable-background="new 0 0 350 240" xml:space="preserve">
<path fill="#4F5962" d="M203.758,67.291h-54.33c-4.751,0-8.602,3.852-8.602,8.602v95.458c0,4.75,3.851,8.602,8.602,8.602h54.33
	c4.751,0,8.602-3.852,8.602-8.602V75.893C212.359,71.143,208.509,67.291,203.758,67.291z M176.592,176.156
	c-2.432,0-4.402-1.973-4.402-4.404s1.971-4.4,4.402-4.4c2.434,0,4.404,1.973,4.404,4.4
	C180.996,174.184,179.025,176.156,176.592,176.156z M203.417,162.964h-53.648V79.811h53.648V162.964z"/>
</svg>
