<?xml version="1.0" encoding="utf-8"?>
<!-- Generator: Adobe Illustrator 16.0.0, SVG Export Plug-In . SVG Version: 6.00 Build 0)  -->
<!DOCTYPE svg PUBLIC "-//W3C//DTD SVG 1.1//EN" "http://www.w3.org/Graphics/SVG/1.1/DTD/svg11.dtd">
<svg version="1.1" id="Layer_1" xmlns="http://www.w3.org/2000/svg" xmlns:xlink="http://www.w3.org/1999/xlink" x="0px" y="0px"
	 width="350px" height="240px" viewBox="0 0 350 240" enable-background="new 0 0 350 240" xml:space="preserve">
<path fill="#4F5962" d="M264.889,58.912H94.543c-2.922,0-5.29,2.369-5.29,5.29v100.05c0,2.921,2.368,5.29,5.29,5.29h170.346
	c2.922,0,5.291-2.369,5.291-5.29V64.202C270.18,61.281,267.811,58.912,264.889,58.912z M264.17,164.148H95.263V64.306H264.17
	V164.148z"/>
<path fill="#4F5962" d="M196.982,173.438v0.088c0,2.192-1.776,3.971-3.969,3.971H164.54c-2.192,0-3.968-1.773-3.968-3.971v-0.088
	H64.859v5.347c0,2.188,1.777,3.968,3.969,3.968h221.777c2.189,0,3.967-1.773,3.967-3.968v-5.347H196.982z"/>
</svg>
