<?xml version="1.0" encoding="utf-8"?>
<!-- Generator: Adobe Illustrator 16.0.0, SVG Export Plug-In . SVG Version: 6.00 Build 0)  -->
<!DOCTYPE svg PUBLIC "-//W3C//DTD SVG 1.1//EN" "http://www.w3.org/Graphics/SVG/1.1/DTD/svg11.dtd">
<svg version="1.1" id="Capa_1" xmlns="http://www.w3.org/2000/svg" xmlns:xlink="http://www.w3.org/1999/xlink" x="0px" y="0px"
	 width="200px" height="200px" viewBox="0 0 200 200" enable-background="new 0 0 200 200" xml:space="preserve">
<path fill="#4D4D4D" d="M140.396,133.541L114,122.499V110c0,0,4.375-7.502,4.875-15.334c0,0,2.812,0.333,5.812-6
	c0.5-5.5-0.469-10.5-3.969-10.667c0,0,1.725-8.667,1.725-15.667c0,0-3.443-17.667-24.443-17.667S73.74,62.333,73.74,62.333
	c0,7,1.906,15.667,1.906,15.667c-3.5,0.167-4.521,5.167-4.021,10.667c3,6.333,5.708,6,5.708,6C77.833,102.498,82,110,82,110v12.499
	l-26.292,11.042c-10,3-15.292,8.042-15.292,8.042C53.25,174,98,174,98,174s44.958,0,57.791-32.417
	C155.791,141.583,150.396,136.541,140.396,133.541z"/>
<circle fill="none" stroke="#4D4D4D" stroke-width="4" stroke-miterlimit="10" cx="98.104" cy="100" r="79.631"/>
</svg>
